# xmcd CD database file
#
# Track frame offsets:
#	150
#	8888
#	25668
#	38410
#	53064
#	66141
#	85411
#	98714
#	110316
#	144407
#	162854
#	174811
#	190792
#	226604
#	234883
#	243002
#
# Disc length: 3393 seconds
#
# Revision: 0
# Processed by: cddbd v1.5.1PL0 Copyright (c) Steve Scherf et al.
# Submitted via: CDex 1.51
#
DISCID=a90d3f10
DTITLE=Georg Graewe - For Trio
DYEAR=2004
DGENRE=Jazz
TTITLE0=Fantasiestück1
TTITLE1=Fantasiestück2
TTITLE2=Fantasiestück3
TTITLE3=Fantasiestück4
TTITLE4=Fantasiestück5
TTITLE5=Fantasiestück6
TTITLE6=Fantasiestück7
TTITLE7=Fantasiestück8
TTITLE8=Fantasiestück9
TTITLE9=Fantasiestück10
TTITLE10=Fantasiestück11
TTITLE11=Fantasiestück12
TTITLE12=Fantasiestück13
TTITLE13=Fantasiestück14
TTITLE14=Fantasiestück15
TTITLE15=Fantasiestück16
EXTD=YEAR: 2004
EXTT0=
EXTT1=
EXTT2=
EXTT3=
EXTT4=
EXTT5=
EXTT6=
EXTT7=
EXTT8=
EXTT9=
EXTT10=
EXTT11=
EXTT12=
EXTT13=
EXTT14=
EXTT15=
PLAYORDER=
